<svg width="24" height="22" viewBox="0 0 24 22" fill="none" xmlns="http://www.w3.org/2000/svg">
<g clip-path="url(#clip0_123_824)">
<path d="M3.15939 6.60255C3.03696 6.46018 2.98107 6.2793 3.00391 6.09938C3.02674 5.91946 3.12644 5.7551 3.28126 5.64217C4.09743 5.09235 5.02468 4.69598 6.00938 4.47599C7.51876 4.13299 9.86251 4.04724 12.4125 5.59929C16.3875 8.02598 19.65 5.73649 19.7813 5.63359C19.9393 5.52325 20.138 5.47323 20.3355 5.49401C20.533 5.5148 20.7141 5.60478 20.8406 5.74507C20.9631 5.88744 21.0189 6.06831 20.9961 6.24823C20.9733 6.42815 20.8736 6.59251 20.7188 6.70545C19.9026 7.25527 18.9753 7.65164 17.9906 7.87163C17.3866 8.00921 16.7663 8.07833 16.1438 8.07743C14.8313 8.07743 13.2563 7.76016 11.5875 6.74832C7.61251 4.32164 4.35001 6.61113 4.21876 6.71403C4.0607 6.82436 3.86204 6.87439 3.66451 6.8536C3.46697 6.83282 3.28593 6.74284 3.15939 6.60255ZM19.7813 10.4355C19.65 10.5384 16.3875 12.8279 12.4125 10.4012C9.86251 8.84917 7.51876 8.93491 6.00938 9.27791C5.02468 9.4979 4.09743 9.89427 3.28126 10.4441C3.12644 10.557 3.02674 10.7214 3.00391 10.9013C2.98107 11.0812 3.03696 11.2621 3.15939 11.4045C3.28593 11.5448 3.46697 11.6347 3.66451 11.6555C3.86204 11.6763 4.0607 11.6263 4.21876 11.5159C4.35001 11.4131 7.61251 9.12356 11.5875 11.5502C13.2563 12.5621 14.8313 12.8794 16.1438 12.8794C16.7663 12.8803 17.3866 12.8111 17.9906 12.6736C18.9753 12.4536 19.9026 12.0572 20.7188 11.5074C20.8736 11.3944 20.9733 11.2301 20.9961 11.0502C21.0189 10.8702 20.9631 10.6894 20.8406 10.547C20.7141 10.4067 20.533 10.3167 20.3355 10.2959C20.138 10.2752 19.9393 10.3252 19.7813 10.4355ZM19.7813 15.2374C19.65 15.3403 16.3875 17.6298 12.4125 15.2031C9.86251 13.6511 7.51876 13.7368 6.00938 14.0798C5.02468 14.2998 4.09743 14.6962 3.28126 15.246C3.12644 15.359 3.02674 15.5233 3.00391 15.7032C2.98107 15.8832 3.03696 16.064 3.15939 16.2064C3.28593 16.3467 3.46697 16.4367 3.66451 16.4575C3.86204 16.4782 4.0607 16.4282 4.21876 16.3179C4.35001 16.215 7.61251 13.9255 11.5875 16.3522C13.2563 17.364 14.8313 17.6813 16.1438 17.6813C17.7894 17.6802 19.3919 17.1996 20.7188 16.3093C20.8736 16.1964 20.9733 16.032 20.9961 15.8521C21.0189 15.6722 20.9631 15.4913 20.8406 15.3489C20.7141 15.2086 20.533 15.1186 20.3355 15.0979C20.138 15.0771 19.9393 15.1271 19.7813 15.2374Z" fill="black"/>
</g>
<defs>
<clipPath id="clip0_123_824">
<rect width="24" height="21.9517" fill="white"/>
</clipPath>
</defs>
</svg>
