<svg width="30" height="30" viewBox="0 0 30 30" fill="none" xmlns="http://www.w3.org/2000/svg">
<path d="M26.8871 22.7334H27.3871V22.2334H26.8871V22.7334ZM26.9156 15.1296V15.6296H27.4156V15.1296H26.9156ZM2.8533 15.1296H2.3533V15.6296H2.8533V15.1296ZM2.88087 22.7334V22.2334H2.38087V22.7334H2.88087ZM4.58504 13.4359V6.65832H3.58504V13.4359H4.58504ZM4.58504 6.65832C4.58504 6.59951 4.60658 6.55513 4.63036 6.52896C4.65351 6.50348 4.67262 6.5 4.68259 6.5V5.5C4.03307 5.5 3.58504 6.06448 3.58504 6.65832H4.58504ZM4.68259 6.5H25.0858V5.5H4.68259V6.5ZM25.0858 6.5C25.0964 6.5 25.1154 6.50367 25.1382 6.52877C25.1617 6.55468 25.1833 6.59904 25.1833 6.65832H26.1833C26.1833 6.06499 25.7367 5.5 25.0858 5.5V6.5ZM25.1833 6.65832V13.4359H26.1833V6.65832H25.1833ZM6.12791 13.4136V11.9487H5.12791V13.4136H6.12791ZM6.12791 11.9487C6.12791 11.61 6.20819 11.3275 6.31224 11.147C6.3638 11.0575 6.4132 11.0066 6.44741 10.9815C6.46372 10.9695 6.4747 10.9647 6.47975 10.9629C6.48229 10.962 6.48374 10.9617 6.48424 10.9616C6.48472 10.9615 6.48488 10.9615 6.48498 10.9615V9.96155C5.99355 9.96155 5.64426 10.3033 5.44582 10.6476C5.2396 11.0055 5.12791 11.4666 5.12791 11.9487H6.12791ZM6.48498 10.9615H12.4845V9.96155H6.48498V10.9615ZM12.4845 10.9615C12.4846 10.9615 12.4848 10.9615 12.4852 10.9616C12.4857 10.9617 12.4872 10.962 12.4897 10.9629C12.4948 10.9647 12.5058 10.9695 12.5221 10.9815C12.5563 11.0066 12.6057 11.0575 12.6573 11.147C12.7613 11.3275 12.8416 11.61 12.8416 11.9487H13.8416C13.8416 11.4666 13.7299 11.0055 13.5237 10.6476C13.3252 10.3033 12.9759 9.96155 12.4845 9.96155V10.9615ZM12.8416 11.9487V13.4359H13.8416V11.9487H12.8416ZM16.9269 13.4136V11.9487H15.9269V13.4136H16.9269ZM16.9269 11.9487C16.9269 11.61 17.0072 11.3275 17.1113 11.147C17.1628 11.0575 17.2122 11.0066 17.2465 10.9815C17.2628 10.9695 17.2737 10.9647 17.2788 10.9629C17.2813 10.962 17.2828 10.9617 17.2833 10.9616C17.2838 10.9615 17.2839 10.9615 17.284 10.9615V9.96155C16.7926 9.96155 16.4433 10.3033 16.2449 10.6476C16.0386 11.0055 15.9269 11.4666 15.9269 11.9487H16.9269ZM17.284 10.9615H23.2835V9.96155H17.284V10.9615ZM23.2835 10.9615C23.2836 10.9615 23.2838 10.9615 23.2843 10.9616C23.2848 10.9617 23.2862 10.962 23.2888 10.9629C23.2938 10.9647 23.3048 10.9695 23.3211 10.9815C23.3553 11.0066 23.4047 11.0575 23.4563 11.147C23.5603 11.3275 23.6406 11.61 23.6406 11.9487H24.6406C24.6406 11.4666 24.5289 11.0055 24.3227 10.6476C24.1243 10.3033 23.775 9.96155 23.2835 9.96155V10.9615ZM23.6406 11.9487V13.4359H24.6406V11.9487H23.6406ZM13.1086 23.2334H26.8871V22.2334H13.1086V23.2334ZM26.3871 22.7334V24.4856H27.3871V22.7334H26.3871ZM26.3871 24.4856C26.3871 25.2669 27.0614 25.8333 27.806 25.8333V24.8333C27.5361 24.8333 27.3871 24.6402 27.3871 24.4856H26.3871ZM27.806 25.8333H27.8501V24.8333H27.806V25.8333ZM27.8501 25.8333C28.5948 25.8333 29.269 25.2669 29.269 24.4856H28.269C28.269 24.6402 28.12 24.8333 27.8501 24.8333V25.8333ZM29.269 24.4856V14.2836H28.269V24.4856H29.269ZM29.269 14.2836C29.269 13.5023 28.5948 12.9359 27.8501 12.9359V13.9359C28.12 13.9359 28.269 14.129 28.269 14.2836H29.269ZM27.8501 12.9359H27.8345V13.9359H27.8501V12.9359ZM27.8345 12.9359C27.0886 12.9359 26.4156 13.5026 26.4156 14.2836H27.4156C27.4156 14.1287 27.5641 13.9359 27.8345 13.9359V12.9359ZM26.4156 14.2836V15.1296H27.4156V14.2836H26.4156ZM26.9156 14.6296H13.7399V15.6296H26.9156V14.6296ZM13.7399 15.6296H14.7553V14.6296H13.7399V15.6296ZM14.7553 14.6296H2.8533V15.6296H14.7553V14.6296ZM3.3533 15.1296V14.2836H2.3533V15.1296H3.3533ZM3.3533 14.2836C3.3533 13.5023 2.67901 12.9359 1.93437 12.9359V13.9359C2.20423 13.9359 2.3533 14.129 2.3533 14.2836H3.3533ZM1.93437 12.9359H1.91875V13.9359H1.93437V12.9359ZM1.91875 12.9359C1.17411 12.9359 0.499817 13.5023 0.499817 14.2836H1.49982C1.49982 14.129 1.64889 13.9359 1.91875 13.9359V12.9359ZM0.499817 14.2836V24.4856H1.49982V14.2836H0.499817ZM0.499817 24.4856C0.499817 25.2669 1.17411 25.8333 1.91875 25.8333V24.8333C1.64889 24.8333 1.49982 24.6402 1.49982 24.4856H0.499817ZM1.91875 25.8333H1.96194V24.8333H1.91875V25.8333ZM1.96194 25.8333C2.70784 25.8333 3.38087 25.2666 3.38087 24.4856H2.38087C2.38087 24.6405 2.23238 24.8333 1.96194 24.8333V25.8333ZM3.38087 24.4856V22.7334H2.38087V24.4856H3.38087ZM2.88087 23.2334H15.3094V22.2334H2.88087V23.2334Z" fill="#929292"/>
</svg>
