<svg width="24" height="24" viewBox="0 0 24 24" fill="none" xmlns="http://www.w3.org/2000/svg">
<path d="M4.8 21H9.3V19.8H4.8C4.64093 19.7998 4.48843 19.7365 4.37594 19.6241C4.26346 19.5116 4.20019 19.3591 4.2 19.2V14.7H3V19.2C3.00054 19.6772 3.19035 20.1348 3.5278 20.4722C3.86525 20.8097 4.32277 20.9995 4.8 21ZM4.2 4.8C4.20019 4.64093 4.26346 4.48843 4.37594 4.37594C4.48843 4.26346 4.64093 4.20019 4.8 4.2H9.3V3H4.8C4.32277 3.00054 3.86525 3.19035 3.5278 3.5278C3.19035 3.86525 3.00054 4.32277 3 4.8V9.3H4.2V4.8ZM19.2 3H14.7V4.2H19.2C19.3591 4.20019 19.5116 4.26346 19.6241 4.37594C19.7365 4.48843 19.7998 4.64093 19.8 4.8V9.3H21V4.8C20.9995 4.32277 20.8097 3.86525 20.4722 3.5278C20.1348 3.19035 19.6772 3.00054 19.2 3ZM19.8 19.2C19.7998 19.3591 19.7365 19.5116 19.6241 19.6241C19.5116 19.7365 19.3591 19.7998 19.2 19.8H14.7V21H19.2C19.6772 20.9995 20.1348 20.8097 20.4722 20.4722C20.8097 20.1348 20.9995 19.6772 21 19.2V14.7H19.8V19.2ZM17.4 12C17.4 9.0225 14.9775 6.6 12 6.6C9.0225 6.6 6.6 9.0225 6.6 12C6.6 14.9775 9.0225 17.4 12 17.4C14.9775 17.4 17.4 14.9775 17.4 12ZM12 16.2C11.1693 16.2 10.3573 15.9537 9.66661 15.4922C8.97592 15.0307 8.43759 14.3747 8.11971 13.6073C7.80182 12.8398 7.71864 11.9953 7.8807 11.1806C8.04276 10.3659 8.44277 9.61753 9.03015 9.03015C9.61753 8.44277 10.3659 8.04276 11.1806 7.8807C11.9953 7.71864 12.8398 7.80182 13.6073 8.11971C14.3747 8.43759 15.0307 8.97592 15.4922 9.66661C15.9537 10.3573 16.2 11.1693 16.2 12C16.1987 13.1135 15.7558 14.1811 14.9685 14.9685C14.1811 15.7558 13.1135 16.1987 12 16.2Z" fill="black"/>
</svg>
