<svg width="30" height="30" viewBox="0 0 30 30" fill="none" xmlns="http://www.w3.org/2000/svg">
<g clip-path="url(#clip0_116_2252)">
<path fill-rule="evenodd" clip-rule="evenodd" d="M7.40714 19.7186V9.29199H9.01124V19.7186C9.01124 19.9314 9.09574 20.1354 9.24615 20.2858C9.39656 20.4362 9.60057 20.5207 9.81329 20.5207H24.2502C24.4629 20.5207 24.6669 20.4362 24.8173 20.2858C24.9677 20.1354 25.0522 19.9314 25.0522 19.7186V9.29199H26.6563V19.7186C26.6563 20.3568 26.4028 20.9688 25.9516 21.4201C25.5004 21.8713 24.8883 22.1248 24.2502 22.1248H9.81329C9.17514 22.1248 8.56312 21.8713 8.11188 21.4201C7.66064 20.9688 7.40714 20.3568 7.40714 19.7186ZM25.0522 2.07353V7.68789L21.844 4.47969V2.07353C21.844 1.86082 21.9285 1.65681 22.079 1.5064C22.2294 1.35599 22.4334 1.27148 22.6461 1.27148H24.2502C24.4629 1.27148 24.6669 1.35599 24.8173 1.5064C24.9677 1.65681 25.0522 1.86082 25.0522 2.07353Z" fill="#929292"/>
<path fill-rule="evenodd" clip-rule="evenodd" d="M15.8977 0.469659C16.1985 0.168937 16.6065 0 17.0318 0C17.4572 0 17.8651 0.168937 18.1659 0.469659L28.8284 11.1305C28.979 11.2811 29.0636 11.4854 29.0636 11.6984C29.0636 11.9114 28.979 12.1156 28.8284 12.2662C28.6778 12.4168 28.4735 12.5014 28.2605 12.5014C28.0475 12.5014 27.8433 12.4168 27.6927 12.2662L17.0318 1.60376L6.37095 12.2662C6.22034 12.4168 6.01608 12.5014 5.80309 12.5014C5.59011 12.5014 5.38585 12.4168 5.23524 12.2662C5.08464 12.1156 5.00003 11.9114 5.00003 11.6984C5.00003 11.4854 5.08464 11.2811 5.23524 11.1305L15.8977 0.469659Z" fill="#929292"/>
<path d="M2.18901 22.5001V1.64648M5.99982 26.0855C5.99982 26.0855 19.5488 26.0855 27.7498 26.0855M5.99982 26.0855C5.99982 25.2712 5.99982 24.8146 5.99982 24.0002M5.99982 26.0855C5.99982 26.8999 5.99982 27.3565 5.99982 28.1709M-0.000183105 1.64648H4.3782M-0.000183105 22.5001H4.3782M27.7498 24.0002C27.7498 25.629 27.7498 28.1709 27.7498 28.1709" stroke="#929292"/>
</g>
<defs>
<clipPath id="clip0_116_2252">
<rect width="30" height="30" fill="white"/>
</clipPath>
</defs>
</svg>
