<svg width="24" height="24" viewBox="0 0 24 24" fill="none" xmlns="http://www.w3.org/2000/svg">
<path d="M12.5827 3L11.8988 4.245L7.00725 13.137L5.57025 11.7L5.07525 12.5235L0.68025 19.8487L0 20.9842H23.463L23.0145 19.938L20.7645 14.688L20.328 13.6702L18.777 15.2212L13.2247 4.2675L12.5835 3H12.5827ZM12.528 6.2115L14.808 10.7085L14.2275 11.2065L12.5175 9.74175L10.8083 11.2065L10.1108 10.6072L12.528 6.2115ZM12.5182 11.7165L14.2282 13.1812L15.5048 12.0862L17.9047 16.8225L18.3713 17.7472L19.8202 16.2982L21.1852 19.4842H2.64825C3.72075 17.6955 4.79475 15.9067 5.868 14.1187L7.359 15.6097L7.8405 14.7352C8.35125 13.8067 8.86275 12.879 9.37275 11.9505L10.8083 13.1805L12.5182 11.7165Z" fill="black"/>
</svg>
