<svg width="30" height="34" viewBox="0 0 30 34" fill="none" xmlns="http://www.w3.org/2000/svg">
<path d="M28.0176 12.3243H27.1732L27.2175 9.21928C27.2122 9.03782 27.1423 8.86422 27.0204 8.72971L19.7655 0.791432C19.7072 0.724835 19.6359 0.670928 19.5559 0.633057C19.4759 0.595187 19.389 0.574163 19.3006 0.571289H4.1206C3.78025 0.576753 3.45529 0.714055 3.21413 0.954292C2.97298 1.19453 2.83444 1.51896 2.82767 1.85929V12.3243H1.9816C1.51339 12.3243 1.0616 12.5181 0.733029 12.8631C0.397787 13.2138 0.211678 13.6808 0.213887 14.1659V23.7438C0.213887 24.7591 1.00574 25.5838 1.9816 25.5838H2.82767V32.1388C2.83404 32.4799 2.97285 32.8053 3.21475 33.0459C3.45665 33.2866 3.78268 33.4238 4.12389 33.4284H25.9377C26.6195 33.4284 27.2192 32.8501 27.2192 32.1404V25.5854H28.0192C28.9951 25.5854 29.7869 24.7591 29.7869 23.7421V14.1643C29.7869 13.678 29.6013 13.2081 29.2694 12.8631C29.1085 12.6937 28.9149 12.5586 28.7003 12.466C28.4857 12.3734 28.2546 12.3252 28.0209 12.3243H28.0176ZM5.06031 2.83514H16.488V10.3545C16.4874 10.5238 16.5521 10.6868 16.6687 10.8096C16.7253 10.869 16.7933 10.9164 16.8687 10.9489C16.9441 10.9814 17.0253 10.9983 17.1074 10.9985H24.9257V12.3243H5.06031V2.83514ZM5.06031 31.1646V25.5838H24.9257V31.1646H5.06031ZM18.7634 3.06843L19.3959 3.78143L23.6344 8.4685L23.8694 8.75271H19.5372C19.2086 8.75271 19.0032 8.6985 18.9162 8.58843C18.8291 8.48164 18.7782 8.30914 18.7634 8.07421V3.06843ZM3.4996 23.9524V14.0953H6.6506C7.84331 14.0953 8.62203 14.1446 8.98345 14.2431C9.54202 14.391 10.0086 14.713 10.3848 15.2091C10.7594 15.7036 10.9483 16.3427 10.9483 17.128C10.9483 17.7326 10.8399 18.2418 10.623 18.6558C10.4062 19.0666 10.1302 19.3902 9.79667 19.6251C9.49182 19.8477 9.14548 20.0069 8.7781 20.0933C8.30988 20.187 7.63138 20.2346 6.7426 20.2346H5.46281V23.9524H3.4996ZM5.46281 15.7628V18.5606H6.53724C7.31103 18.5606 7.82853 18.508 8.08974 18.4061C8.34222 18.3108 8.55849 18.1388 8.70818 17.9143C8.85787 17.6898 8.93346 17.424 8.92431 17.1543C8.93629 16.8297 8.82475 16.5127 8.61217 16.2671C8.40705 16.0355 8.12871 15.8813 7.8236 15.8301C7.59031 15.7858 7.11881 15.7644 6.41074 15.7644H5.46281V15.7628ZM12.1 14.0953H15.6879C16.4979 14.0953 17.1139 14.1577 17.5394 14.2842C18.1095 14.4534 18.5974 14.7574 19.0049 15.1911C19.4107 15.6264 19.7212 16.1587 19.9331 16.7879C20.1467 17.4188 20.2518 18.1942 20.2518 19.1175C20.2518 19.9291 20.1532 20.6289 19.9528 21.2154C19.7097 21.9333 19.3614 22.5133 18.9112 22.9568C18.5712 23.2936 18.1112 23.5565 17.5312 23.7454C17.0992 23.8834 16.5192 23.9524 15.7947 23.9524H12.1V14.0953ZM14.0632 15.7628V22.2915H15.5286C16.0773 22.2915 16.4732 22.2603 16.7164 22.1978C17.0351 22.1157 17.2996 21.981 17.5082 21.7871C17.7185 21.5949 17.891 21.2778 18.0224 20.8359C18.1555 20.394 18.2212 19.7927 18.2212 19.0304C18.2212 18.2681 18.1555 17.6833 18.0241 17.2758C17.9197 16.9164 17.7278 16.5884 17.4655 16.3213C17.212 16.0847 16.8973 15.9236 16.557 15.8564C16.2827 15.794 15.7455 15.7628 14.947 15.7628H14.0632ZM21.4774 23.9524V14.0953H28.1424V15.7628H23.4406V18.0956H27.4984V19.7631H23.4406V23.9524H21.4774Z" fill="white"/>
</svg>
