<svg width="24" height="24" viewBox="0 0 24 24" fill="none" xmlns="http://www.w3.org/2000/svg">
<path d="M23.8467 7.43997C23.7956 7.11552 23.6471 6.81426 23.4209 6.57613C23.1947 6.33801 22.9014 6.17427 22.58 6.10663L18.6667 5.24663C18.247 5.15511 17.8126 5.15477 17.3928 5.24563C16.973 5.33649 16.5776 5.51644 16.2334 5.7733L4.66669 14.2L1.42669 14.0666C1.16624 14.0573 0.909463 14.1303 0.692844 14.2752C0.476225 14.4201 0.310775 14.6296 0.219992 14.8739C0.12921 15.1182 0.117711 15.3849 0.187128 15.6361C0.256546 15.8873 0.403351 16.1103 0.606692 16.2733L3.94003 18.8933C4.34002 19.38 4.60669 19.2866 11.2267 15.68L11.8467 21.96C11.857 22.1313 11.9157 22.2961 12.016 22.4354C12.1164 22.5747 12.2541 22.6826 12.4134 22.7466C12.5279 22.7919 12.6502 22.8145 12.7734 22.8133C13.0213 22.8057 13.2581 22.7086 13.44 22.54L15.0334 21.0866C15.192 20.9396 15.2995 20.7457 15.34 20.5333L16.8 12.6C19.18 11.2666 21.4334 10.0133 23.04 9.09997C23.3275 8.93828 23.5587 8.69271 23.7029 8.39607C23.847 8.09944 23.8972 7.76588 23.8467 7.43997ZM22.38 7.93997C20.7134 8.88663 18.38 10.2133 15.8734 11.5866L15.6 11.74L14.0467 20.1866L13.0667 21.08L12.3334 13.5466L11.4467 14C6.66669 16.6666 5.07336 17.44 4.52669 17.68L1.66003 15.4066L5.04669 15.5533L17.0467 6.84663C17.2353 6.70562 17.4516 6.606 17.6813 6.55431C17.9111 6.50261 18.1492 6.5 18.38 6.54663L22.28 7.38663C22.3401 7.39753 22.3952 7.42733 22.4371 7.4717C22.4791 7.51608 22.5058 7.57269 22.5134 7.6333C22.5271 7.69196 22.5215 7.75348 22.4975 7.80872C22.4735 7.86397 22.4323 7.91 22.38 7.93997Z" fill="black"/>
<path d="M4.66673 10.3602L7.04006 11.0268L8.13339 10.2335L5.46673 9.46017L6.66673 8.72684L10.3134 8.62017L11.8467 7.50684L6.66673 7.66684C6.50342 7.658 6.34112 7.69742 6.20006 7.78017L4.44673 8.80017C4.30177 8.88604 4.18548 9.0129 4.11251 9.16476C4.03954 9.31662 4.01315 9.48668 4.03668 9.65351C4.06021 9.82034 4.1326 9.97647 4.24472 10.1022C4.35684 10.228 4.50368 10.3177 4.66673 10.3602Z" fill="black"/>
</svg>
