<svg width="30" height="30" viewBox="0 0 30 30" fill="none" xmlns="http://www.w3.org/2000/svg">
<path fill-rule="evenodd" clip-rule="evenodd" d="M2.99982 6V1.5H1.49982V28.5H2.99982V13.5H5.24982V15H15.7498V12.5002H17.9998C18.3976 12.5002 18.7792 12.6583 19.0605 12.9396C19.3418 13.2209 19.4998 13.6024 19.4998 14.0003V14.25H17.9998V20.25H28.4998V14.25H26.9998V13.5C26.9998 9.35775 23.6421 6 19.4998 6H15.7498V4.5H11.2498V3H16.4998C16.6987 3 16.8895 2.92098 17.0301 2.78033C17.1708 2.63968 17.2498 2.44891 17.2498 2.25C17.2498 2.05109 17.1708 1.86032 17.0301 1.71967C16.8895 1.57902 16.6987 1.5 16.4998 1.5H4.49982C4.3009 1.5 4.11014 1.57902 3.96949 1.71967C3.82883 1.86032 3.74982 2.05109 3.74982 2.25C3.74982 2.44891 3.82883 2.63968 3.96949 2.78033C4.11014 2.92098 4.3009 3 4.49982 3H9.74982V4.5H5.24982V6H2.99982ZM25.4998 13.5C25.4998 11.9087 24.8677 10.3826 23.7425 9.25736C22.6172 8.13214 21.0911 7.5 19.4998 7.5H15.7498V11.0002H17.9998C18.7955 11.0002 19.5585 11.3163 20.1211 11.8789C20.6837 12.4415 20.9998 13.2046 20.9998 14.0003V14.25H25.4998V13.5ZM26.9998 15.75H19.4998V18.75H26.9998V15.75ZM14.2498 6H6.74982V13.5H14.2498V6ZM5.24982 12H2.99982V7.5H5.24982V12Z" fill="#929292"/>
<path fill-rule="evenodd" clip-rule="evenodd" d="M24.5831 29.9998C26.194 29.9998 27.4998 28.6432 27.4998 26.9698C27.4998 24.3182 24.5831 21.6665 24.5831 21.6665C24.5831 21.6665 21.6665 24.3182 21.6665 26.9698C21.6665 28.6432 22.9723 29.9998 24.5831 29.9998ZM24.5831 28.3332C25.214 28.3332 25.8331 27.7832 25.8331 26.9698C25.8331 26.1932 25.3731 25.2307 24.6973 24.309C24.6598 24.2578 24.6217 24.207 24.5831 24.1565C24.5448 24.2065 24.5065 24.2573 24.469 24.309C23.794 25.2298 23.3331 26.1923 23.3331 26.9698C23.3331 27.7832 23.9523 28.3332 24.5831 28.3332Z" fill="#929292"/>
</svg>
