<svg width="28" height="30" viewBox="0 0 28 30" fill="none" xmlns="http://www.w3.org/2000/svg">
<path d="M22.9612 9.32471C21.8971 9.32471 20.915 8.95131 20.1459 8.32775L12.4092 13.9249C12.5387 14.6359 12.5387 15.3646 12.4092 16.0756L20.1459 21.6728C20.915 21.0492 21.8971 20.6758 22.9612 20.6758C25.4331 20.6758 27.4419 22.6847 27.4419 25.1565C27.4419 27.6284 25.4331 29.6372 22.9612 29.6372C20.4894 29.6372 18.4805 27.6284 18.4805 25.1565C18.4805 24.7234 18.5403 24.3089 18.656 23.9131L11.3077 18.5923C10.2174 20.0373 8.48484 20.9745 6.532 20.9745C3.23122 20.9745 0.557739 18.301 0.557739 15.0003C0.557739 11.6995 3.23122 9.02599 6.532 9.02599C8.48484 9.02599 10.2174 9.9632 11.3077 11.4082L18.656 6.0874C18.5403 5.6916 18.4805 5.27341 18.4805 4.84401C18.4805 2.37215 20.4894 0.363306 22.9612 0.363306C25.4331 0.363306 27.4419 2.37215 27.4419 4.84401C27.4419 7.31586 25.4331 9.32471 22.9612 9.32471ZM22.9612 27.0981C24.0329 27.0981 24.9029 26.2281 24.9029 25.1565C24.9029 24.0849 24.0329 23.2149 22.9612 23.2149C21.8896 23.2149 21.0196 24.0849 21.0196 25.1565C21.0196 26.2281 21.8896 27.0981 22.9612 27.0981ZM6.532 11.7144C4.72106 11.7144 3.24616 13.1893 3.24616 15.0003C3.24616 16.8112 4.72106 18.2861 6.532 18.2861C8.34295 18.2861 9.81785 16.8112 9.81785 15.0003C9.81785 13.1893 8.34295 11.7144 6.532 11.7144ZM22.9612 2.90237C21.8896 2.90237 21.0196 3.77237 21.0196 4.84401C21.0196 5.91564 21.8896 6.78564 22.9612 6.78564C24.0329 6.78564 24.9029 5.91564 24.9029 4.84401C24.9029 3.77237 24.0329 2.90237 22.9612 2.90237Z" fill="white"/>
</svg>
