<svg width="30" height="30" viewBox="0 0 30 30" fill="none" xmlns="http://www.w3.org/2000/svg">
<path d="M4.875 1.5H25.125C26.0201 1.5 26.8785 1.85558 27.5115 2.48851C28.1444 3.12145 28.5 3.97989 28.5 4.875V25.125C28.5 26.0201 28.1444 26.8785 27.5115 27.5115C26.8785 28.1444 26.0201 28.5 25.125 28.5H4.875C3.97989 28.5 3.12145 28.1444 2.48851 27.5115C1.85558 26.8785 1.5 26.0201 1.5 25.125V4.875C1.5 3.97989 1.85558 3.12145 2.48851 2.48851C3.12145 1.85558 3.97989 1.5 4.875 1.5ZM15.8438 15.8438V25.9688H25.9688V15.8438H15.8438ZM4.03125 15.8438V25.9688H14.1562V15.8438H4.03125ZM15.8438 4.03125V14.1562H25.9688V4.03125H15.8438ZM4.03125 4.03125V14.1562H14.1562V4.03125H4.03125Z" fill="#929292"/>
</svg>
