<svg width="33" height="34" viewBox="0 0 33 34" fill="none" xmlns="http://www.w3.org/2000/svg">
<path d="M16.5 17.3906C18.688 17.3906 20.7865 16.5214 22.3336 14.9743C23.8808 13.4271 24.75 11.3287 24.75 9.14062C24.75 6.95259 23.8808 4.85417 22.3336 3.30699C20.7865 1.75982 18.688 0.890625 16.5 0.890625C14.312 0.890625 12.2135 1.75982 10.6664 3.30699C9.11919 4.85417 8.25 6.95259 8.25 9.14062C8.25 11.3287 9.11919 13.4271 10.6664 14.9743C12.2135 16.5214 14.312 17.3906 16.5 17.3906ZM22 9.14062C22 10.5993 21.4205 11.9983 20.3891 13.0297C19.3576 14.0612 17.9587 14.6406 16.5 14.6406C15.0413 14.6406 13.6424 14.0612 12.6109 13.0297C11.5795 11.9983 11 10.5993 11 9.14062C11 7.68193 11.5795 6.28299 12.6109 5.25154C13.6424 4.22009 15.0413 3.64062 16.5 3.64062C17.9587 3.64062 19.3576 4.22009 20.3891 5.25154C21.4205 6.28299 22 7.68193 22 9.14062ZM33 31.1406C33 33.8906 30.25 33.8906 30.25 33.8906H2.75C2.75 33.8906 0 33.8906 0 31.1406C0 28.3906 2.75 20.1406 16.5 20.1406C30.25 20.1406 33 28.3906 33 31.1406ZM30.25 31.1296C30.2472 30.4531 29.8265 28.4181 27.962 26.5536C26.169 24.7606 22.7948 22.8906 16.5 22.8906C10.2025 22.8906 6.831 24.7606 5.038 26.5536C3.1735 28.4181 2.7555 30.4531 2.75 31.1296H30.25Z" fill="white"/>
</svg>
