<svg width="24" height="24" viewBox="0 0 24 24" fill="none" xmlns="http://www.w3.org/2000/svg">
<path d="M16.4394 8.59472C15.8009 8.59472 15.2117 8.37069 14.7502 7.99655L10.1082 11.3548C10.1859 11.7815 10.1859 12.2186 10.1082 12.6453L14.7502 16.0036C15.2117 15.6294 15.8009 15.4054 16.4394 15.4054C17.9225 15.4054 19.1278 16.6107 19.1278 18.0938C19.1278 19.5769 17.9225 20.7822 16.4394 20.7822C14.9563 20.7822 13.751 19.5769 13.751 18.0938C13.751 17.8339 13.7868 17.5852 13.8563 17.3478L9.44728 14.1553C8.7931 15.0223 7.75358 15.5846 6.58187 15.5846C4.6014 15.5846 2.99731 13.9805 2.99731 12.0001C2.99731 10.0196 4.6014 8.4155 6.58187 8.4155C7.75358 8.4155 8.7931 8.97782 9.44728 9.84484L13.8563 6.65234C13.7868 6.41486 13.751 6.16395 13.751 5.90631C13.751 4.42319 14.9563 3.21789 16.4394 3.21789C17.9225 3.21789 19.1278 4.42319 19.1278 5.90631C19.1278 7.38942 17.9225 8.59472 16.4394 8.59472ZM16.4394 19.2588C17.0824 19.2588 17.6044 18.7368 17.6044 18.0938C17.6044 17.4508 17.0824 16.9288 16.4394 16.9288C15.7964 16.9288 15.2744 17.4508 15.2744 18.0938C15.2744 18.7368 15.7964 19.2588 16.4394 19.2588ZM6.58187 10.0285C5.4953 10.0285 4.61037 10.9135 4.61037 12.0001C4.61037 13.0866 5.4953 13.9716 6.58187 13.9716C7.66844 13.9716 8.55338 13.0866 8.55338 12.0001C8.55338 10.9135 7.66844 10.0285 6.58187 10.0285ZM16.4394 4.74132C15.7964 4.74132 15.2744 5.26333 15.2744 5.90631C15.2744 6.54929 15.7964 7.07129 16.4394 7.07129C17.0824 7.07129 17.6044 6.54929 17.6044 5.90631C17.6044 5.26333 17.0824 4.74132 16.4394 4.74132Z" fill="white"/>
</svg>
