<svg width="15" height="15" viewBox="0 0 15 15" fill="none" xmlns="http://www.w3.org/2000/svg">
<path d="M5.95147 14.4231H7.31787C7.43933 14.4231 7.50006 14.374 7.50006 14.2757V1.3013C7.50006 1.20301 7.43933 1.15386 7.31787 1.15386H5.95147C5.83002 1.15386 5.76929 1.20301 5.76929 1.3013V14.2757C5.76929 14.374 5.83002 14.4231 5.95147 14.4231Z" fill="#929292"/>
<path d="M0.154293 8.65381H13.1149C13.2178 8.65381 13.2692 8.59308 13.2692 8.47162V7.10523C13.2692 6.98377 13.2178 6.92304 13.1149 6.92304H0.154293C0.0514311 6.92304 0 6.98377 0 7.10523V8.47162C0 8.59308 0.0514311 8.65381 0.154293 8.65381Z" fill="#929292"/>
</svg>
