<svg width="22" height="22" viewBox="0 0 22 22" fill="none" xmlns="http://www.w3.org/2000/svg">
<path d="M18.4794 6.30118H10.0152L8.57544 4.36073C8.45939 4.20525 8.30741 4.07886 8.13192 3.9919C7.95643 3.90493 7.76241 3.85986 7.56572 3.86036H3.52061C3.19 3.86036 2.87293 3.98893 2.63916 4.21781C2.40538 4.44668 2.27405 4.7571 2.27405 5.08077V18.5053C2.27405 18.829 2.40538 19.1394 2.63916 19.3683C2.87293 19.5972 3.19 19.7257 3.52061 19.7257H18.4794C18.81 19.7257 19.1271 19.5972 19.3609 19.3683C19.5946 19.1394 19.726 18.829 19.726 18.5053V7.5216C19.726 7.19792 19.5946 6.88751 19.3609 6.65863C19.1271 6.42976 18.81 6.30118 18.4794 6.30118ZM18.4794 18.5053H3.52061V8.74201H8.07681C8.40742 8.74201 8.72449 8.61343 8.95827 8.38456C9.19204 8.15569 9.32338 7.84527 9.32338 7.5216H3.52061V5.08077H7.56572L9.19249 7.27141C9.25051 7.34915 9.3265 7.41234 9.41425 7.45583C9.50199 7.49931 9.599 7.52185 9.69735 7.5216H18.4794V18.5053Z" fill="white"/>
<path d="M11.0987 16.625H11.8388C11.9046 16.625 11.9375 16.6007 11.9375 16.5521V10.1354C11.9375 10.0868 11.9046 10.0625 11.8388 10.0625H11.0987C11.0329 10.0625 11 10.0868 11 10.1354V16.5521C11 16.6007 11.0329 16.625 11.0987 16.625Z" fill="white"/>
<path d="M8.26381 13.8125H14.6737C14.7246 13.8125 14.75 13.7796 14.75 13.7138V12.9737C14.75 12.9079 14.7246 12.875 14.6737 12.875H8.26381C8.21294 12.875 8.1875 12.9079 8.1875 12.9737V13.7138C8.1875 13.7796 8.21294 13.8125 8.26381 13.8125Z" fill="white"/>
</svg>
