<svg width="15" height="15" viewBox="0 0 15 15" fill="none" xmlns="http://www.w3.org/2000/svg">
<path d="M14 8H11.5625M4.25 2C4.46549 2 4.67215 2.09031 4.82452 2.25105C4.9769 2.4118 5.0625 2.62981 5.0625 2.85714V4.57143C5.0625 4.79876 4.9769 5.01677 4.82452 5.17752C4.67215 5.33827 4.46549 5.42857 4.25 5.42857C4.03451 5.42857 3.82785 5.33827 3.67548 5.17752C3.5231 5.01677 3.4375 4.79876 3.4375 4.57143V2.85714C3.4375 2.62981 3.5231 2.4118 3.67548 2.25105C3.82785 2.09031 4.03451 2 4.25 2V2ZM14 3.71429H5.0625H14ZM3.4375 3.71429H1H3.4375ZM4.25 10.5714C4.46549 10.5714 4.67215 10.6617 4.82452 10.8225C4.9769 10.9832 5.0625 11.2012 5.0625 11.4286V13.1429C5.0625 13.3702 4.9769 13.5882 4.82452 13.7489C4.67215 13.9097 4.46549 14 4.25 14C4.03451 14 3.82785 13.9097 3.67548 13.7489C3.5231 13.5882 3.4375 13.3702 3.4375 13.1429V11.4286C3.4375 11.2012 3.5231 10.9832 3.67548 10.8225C3.82785 10.6617 4.03451 10.5714 4.25 10.5714ZM14 12.2857H5.0625H14ZM3.4375 12.2857H1H3.4375ZM10.75 6.28571C10.9655 6.28571 11.1722 6.37602 11.3245 6.53677C11.4769 6.69751 11.5625 6.91553 11.5625 7.14286V8.85714C11.5625 9.08447 11.4769 9.30249 11.3245 9.46323C11.1722 9.62398 10.9655 9.71429 10.75 9.71429C10.5345 9.71429 10.3278 9.62398 10.1755 9.46323C10.0231 9.30249 9.9375 9.08447 9.9375 8.85714V7.14286C9.9375 6.91553 10.0231 6.69751 10.1755 6.53677C10.3278 6.37602 10.5345 6.28571 10.75 6.28571V6.28571ZM9.9375 8H1H9.9375Z" stroke="white" stroke-linecap="round" stroke-linejoin="round"/>
</svg>
