<svg width="23" height="23" viewBox="0 0 23 23" fill="none" xmlns="http://www.w3.org/2000/svg">
<g clip-path="url(#clip0_575_23346)">
<path d="M18.9781 1.15002C17.9438 1.15002 16.8906 1.54804 16.1011 2.34025L7.2948 11.1784L2.10551 13.1713L1.60167 13.3799L1.51248 13.916L0.178385 22.8712L0 24.15L1.27621 23.9729L10.2021 22.6341L10.7354 22.5446L10.9432 22.039L12.8114 17.0991L13.2859 16.6535L21.8256 8.08383C23.3561 6.547 23.3855 4.08085 21.9442 2.48879L21.8256 2.34025C21.453 1.96295 21.0096 1.66349 20.521 1.45919C20.0324 1.2549 19.5083 1.14981 18.979 1.15002H18.9781ZM18.9781 3.02487C19.5113 3.02487 20.0455 3.26292 20.4896 3.70949C21.3796 4.60169 21.3796 5.85191 20.4896 6.7441L15.7159 11.5345L12.6909 8.49993L17.4656 3.70949C17.9096 3.26292 18.4439 3.02487 18.9771 3.02487H18.9781ZM11.3274 9.86917L14.3524 12.9038L12.6321 14.6301L9.60716 11.5945L11.3274 9.86917ZM8.15446 12.8743H8.18388L11.2392 15.9384L9.36995 20.8488L3.82579 21.6515L6.37536 19.093C6.42755 19.0968 6.47214 19.1225 6.52338 19.1225C7.36122 19.1225 8.06622 18.4464 8.06622 17.6057C8.06622 16.7649 7.36122 16.0584 6.52338 16.0584C5.68649 16.0584 5.01185 16.7649 5.01185 17.6057C5.01185 17.6571 5.03747 17.7018 5.04127 17.7542L2.49075 20.3127L3.29158 14.7491L8.15446 12.8743Z" fill="white"/>
</g>
<defs>
<clipPath id="clip0_575_23346">
<rect width="23" height="23" fill="white"/>
</clipPath>
</defs>
</svg>
