<svg width="20" height="20" viewBox="0 0 20 20" fill="none" xmlns="http://www.w3.org/2000/svg">
<path d="M3.25 1H16.75C17.3467 1 17.919 1.23705 18.341 1.65901C18.7629 2.08097 19 2.65326 19 3.25V16.75C19 17.3467 18.7629 17.919 18.341 18.341C17.919 18.7629 17.3467 19 16.75 19H3.25C2.65326 19 2.08097 18.7629 1.65901 18.341C1.23705 17.919 1 17.3467 1 16.75V3.25C1 2.65326 1.23705 2.08097 1.65901 1.65901C2.08097 1.23705 2.65326 1 3.25 1ZM10.5625 10.5625V17.3125H17.3125V10.5625H10.5625ZM2.6875 10.5625V17.3125H9.4375V10.5625H2.6875ZM10.5625 2.6875V9.4375H17.3125V2.6875H10.5625ZM2.6875 2.6875V9.4375H9.4375V2.6875H2.6875Z" fill="#929292"/>
</svg>
