<svg width="19" height="20" viewBox="0 0 19 20" fill="none" xmlns="http://www.w3.org/2000/svg">
<path d="M15.8333 6.12245C15.0813 6.12245 14.3872 5.86735 13.8436 5.44133L8.37583 9.26531C8.46739 9.7511 8.46739 10.2489 8.37583 10.7347L13.8436 14.5587C14.3872 14.1327 15.0813 13.8776 15.8333 13.8776C17.5803 13.8776 19 15.25 19 16.9388C19 18.6276 17.5803 20 15.8333 20C14.0864 20 12.6667 18.6276 12.6667 16.9388C12.6667 16.6429 12.7089 16.3597 12.7907 16.0893L7.59736 12.4541C6.82681 13.4413 5.60236 14.0816 4.22222 14.0816C1.88944 14.0816 0 12.2551 0 10C0 7.7449 1.88944 5.91837 4.22222 5.91837C5.60236 5.91837 6.82681 6.55867 7.59736 7.54592L12.7907 3.91071C12.7089 3.6403 12.6667 3.35459 12.6667 3.06122C12.6667 1.37245 14.0864 0 15.8333 0C17.5803 0 19 1.37245 19 3.06122C19 4.75 17.5803 6.12245 15.8333 6.12245ZM15.8333 18.2653C16.5907 18.2653 17.2056 17.6709 17.2056 16.9388C17.2056 16.2066 16.5907 15.6122 15.8333 15.6122C15.076 15.6122 14.4611 16.2066 14.4611 16.9388C14.4611 17.6709 15.076 18.2653 15.8333 18.2653ZM4.22222 7.7551C2.94236 7.7551 1.9 8.76275 1.9 10C1.9 11.2372 2.94236 12.2449 4.22222 12.2449C5.50208 12.2449 6.54444 11.2372 6.54444 10C6.54444 8.76275 5.50208 7.7551 4.22222 7.7551ZM15.8333 1.73469C15.076 1.73469 14.4611 2.32908 14.4611 3.06122C14.4611 3.79337 15.076 4.38775 15.8333 4.38775C16.5907 4.38775 17.2056 3.79337 17.2056 3.06122C17.2056 2.32908 16.5907 1.73469 15.8333 1.73469Z" fill="white"/>
</svg>
