<svg width="15" height="15" viewBox="0 0 15 15" fill="none" xmlns="http://www.w3.org/2000/svg">
<path d="M12.5 4.59184C11.9063 4.59184 11.3583 4.40051 10.9292 4.08099L6.6125 6.94898C6.68478 7.31333 6.68478 7.68667 6.6125 8.05102L10.9292 10.919C11.3583 10.5995 11.9063 10.4082 12.5 10.4082C13.8792 10.4082 15 11.4375 15 12.7041C15 13.9707 13.8792 15 12.5 15C11.1208 15 10 13.9707 10 12.7041C10 12.4821 10.0333 12.2698 10.0979 12.067L5.99792 9.34056C5.38958 10.081 4.42292 10.5612 3.33333 10.5612C1.49167 10.5612 0 9.19133 0 7.5C0 5.80867 1.49167 4.43878 3.33333 4.43878C4.42292 4.43878 5.38958 4.919 5.99792 5.65944L10.0979 2.93303C10.0333 2.73023 10 2.51594 10 2.29592C10 1.02934 11.1208 0 12.5 0C13.8792 0 15 1.02934 15 2.29592C15 3.5625 13.8792 4.59184 12.5 4.59184ZM12.5 13.699C13.0979 13.699 13.5833 13.2532 13.5833 12.7041C13.5833 12.155 13.0979 11.7092 12.5 11.7092C11.9021 11.7092 11.4167 12.155 11.4167 12.7041C11.4167 13.2532 11.9021 13.699 12.5 13.699ZM3.33333 5.81633C2.32292 5.81633 1.5 6.57207 1.5 7.5C1.5 8.42793 2.32292 9.18367 3.33333 9.18367C4.34375 9.18367 5.16667 8.42793 5.16667 7.5C5.16667 6.57207 4.34375 5.81633 3.33333 5.81633ZM12.5 1.30102C11.9021 1.30102 11.4167 1.74681 11.4167 2.29592C11.4167 2.84503 11.9021 3.29082 12.5 3.29082C13.0979 3.29082 13.5833 2.84503 13.5833 2.29592C13.5833 1.74681 13.0979 1.30102 12.5 1.30102Z" fill="white"/>
</svg>
