<svg width="31" height="32" viewBox="0 0 31 32" fill="none" xmlns="http://www.w3.org/2000/svg">
<path d="M25.8333 9.79592C24.6063 9.79592 23.4739 9.38775 22.5869 8.70612L13.6658 14.8245C13.8152 15.6018 13.8152 16.3982 13.6658 17.1755L22.5869 23.2939C23.4739 22.6122 24.6063 22.2041 25.8333 22.2041C28.6836 22.2041 31 24.4 31 27.102C31 29.8041 28.6836 32 25.8333 32C22.9831 32 20.6667 29.8041 20.6667 27.102C20.6667 26.6286 20.7356 26.1755 20.869 25.7429L12.3957 19.9265C11.1385 21.5061 9.14069 22.5306 6.88889 22.5306C3.08278 22.5306 0 19.6082 0 16C0 12.3918 3.08278 9.46939 6.88889 9.46939C9.14069 9.46939 11.1385 10.4939 12.3957 12.0735L20.869 6.25714C20.7356 5.82449 20.6667 5.36735 20.6667 4.89796C20.6667 2.19592 22.9831 -4.76837e-07 25.8333 -4.76837e-07C28.6836 -4.76837e-07 31 2.19592 31 4.89796C31 7.6 28.6836 9.79592 25.8333 9.79592ZM25.8333 29.2245C27.069 29.2245 28.0722 28.2735 28.0722 27.102C28.0722 25.9306 27.069 24.9796 25.8333 24.9796C24.5976 24.9796 23.5944 25.9306 23.5944 27.102C23.5944 28.2735 24.5976 29.2245 25.8333 29.2245ZM6.88889 12.4082C4.80069 12.4082 3.1 14.0204 3.1 16C3.1 17.9796 4.80069 19.5918 6.88889 19.5918C8.97708 19.5918 10.6778 17.9796 10.6778 16C10.6778 14.0204 8.97708 12.4082 6.88889 12.4082ZM25.8333 2.77551C24.5976 2.77551 23.5944 3.72653 23.5944 4.89796C23.5944 6.06939 24.5976 7.02041 25.8333 7.02041C27.069 7.02041 28.0722 6.06939 28.0722 4.89796C28.0722 3.72653 27.069 2.77551 25.8333 2.77551Z" fill="white"/>
</svg>
