<svg width="21" height="24" viewBox="0 0 21 24" fill="none" xmlns="http://www.w3.org/2000/svg">
<path d="M10.5 11.5C11.7598 11.5 12.968 10.9996 13.8588 10.1088C14.7496 9.21796 15.25 8.00978 15.25 6.75C15.25 5.49022 14.7496 4.28204 13.8588 3.39124C12.968 2.50045 11.7598 2 10.5 2C9.24022 2 8.03204 2.50045 7.14124 3.39124C6.25045 4.28204 5.75 5.49022 5.75 6.75C5.75 8.00978 6.25045 9.21796 7.14124 10.1088C8.03204 10.9996 9.24022 11.5 10.5 11.5ZM13.6667 6.75C13.6667 7.58985 13.333 8.39531 12.7392 8.98917C12.1453 9.58304 11.3399 9.91667 10.5 9.91667C9.66015 9.91667 8.85469 9.58304 8.26083 8.98917C7.66696 8.39531 7.33333 7.58985 7.33333 6.75C7.33333 5.91015 7.66696 5.10469 8.26083 4.51083C8.85469 3.91696 9.66015 3.58333 10.5 3.58333C11.3399 3.58333 12.1453 3.91696 12.7392 4.51083C13.333 5.10469 13.6667 5.91015 13.6667 6.75ZM20 19.4167C20 21 18.4167 21 18.4167 21H2.58333C2.58333 21 1 21 1 19.4167C1 17.8333 2.58333 13.0833 10.5 13.0833C18.4167 13.0833 20 17.8333 20 19.4167ZM18.4167 19.4103C18.4151 19.0208 18.1728 17.8492 17.0993 16.7757C16.067 15.7433 14.1243 14.6667 10.5 14.6667C6.87417 14.6667 4.933 15.7433 3.90067 16.7757C2.82717 17.8492 2.5865 19.0208 2.58333 19.4103H18.4167Z" fill="white"/>
</svg>
