<svg width="33" height="33" viewBox="0 0 33 33" fill="none" xmlns="http://www.w3.org/2000/svg">
<path d="M28.4671 6.98248H14.9245L12.6208 3.87775C12.4351 3.62898 12.192 3.42676 11.9112 3.28762C11.6304 3.14848 11.32 3.07636 11.0052 3.07716H4.53308C4.0041 3.07716 3.49679 3.28288 3.12275 3.64908C2.74871 4.01527 2.53857 4.51194 2.53857 5.02982V26.5091C2.53857 27.027 2.74871 27.5236 3.12275 27.8898C3.49679 28.256 4.0041 28.4618 4.53308 28.4618H28.4671C28.9961 28.4618 29.5034 28.256 29.8775 27.8898C30.2515 27.5236 30.4617 27.027 30.4617 26.5091V8.93514C30.4617 8.41726 30.2515 7.9206 29.8775 7.5544C29.5034 7.18821 28.9961 6.98248 28.4671 6.98248ZM28.4671 26.5091H4.53308V10.8878H11.823C12.352 10.8878 12.8593 10.6821 13.2333 10.3159C13.6074 9.94969 13.8175 9.45302 13.8175 8.93514H4.53308V5.02982H11.0052L13.6081 8.53485C13.7009 8.65923 13.8225 8.76034 13.9629 8.82991C14.1033 8.89948 14.2585 8.93554 14.4159 8.93514H28.4671V26.5091Z" fill="#929292"/>
</svg>
