<svg width="36" height="36" viewBox="0 0 36 36" fill="none" xmlns="http://www.w3.org/2000/svg">
<path fill-rule="evenodd" clip-rule="evenodd" d="M5.80298 9.28832C5.80298 8.8262 5.98655 8.38301 6.31332 8.05624C6.64009 7.72948 7.08328 7.5459 7.5454 7.5459H28.4545C28.9166 7.5459 29.3598 7.72948 29.6866 8.05624C30.0133 8.38301 30.1969 8.8262 30.1969 9.28832C30.1969 9.75044 30.0133 10.1936 29.6866 10.5204C29.3598 10.8472 28.9166 11.0307 28.4545 11.0307H7.5454C7.08328 11.0307 6.64009 10.8472 6.31332 10.5204C5.98655 10.1936 5.80298 9.75044 5.80298 9.28832ZM5.80298 18.0005C5.80298 17.5383 5.98655 17.0951 6.31332 16.7684C6.64009 16.4416 7.08328 16.258 7.5454 16.258H17.9999C18.4621 16.258 18.9053 16.4416 19.232 16.7684C19.5588 17.0951 19.7424 17.5383 19.7424 18.0005C19.7424 18.4626 19.5588 18.9058 19.232 19.2325C18.9053 19.5593 18.4621 19.7429 17.9999 19.7429H7.5454C7.08328 19.7429 6.64009 19.5593 6.31332 19.2325C5.98655 18.9058 5.80298 18.4626 5.80298 18.0005ZM5.80298 26.7126C5.80298 26.2505 5.98655 25.8073 6.31332 25.4805C6.64009 25.1537 7.08328 24.9702 7.5454 24.9702H28.4545C28.9166 24.9702 29.3598 25.1537 29.6866 25.4805C30.0133 25.8073 30.1969 26.2505 30.1969 26.7126C30.1969 27.1747 30.0133 27.6179 29.6866 27.9447C29.3598 28.2714 28.9166 28.455 28.4545 28.455H7.5454C7.08328 28.455 6.64009 28.2714 6.31332 27.9447C5.98655 27.6179 5.80298 27.1747 5.80298 26.7126Z" fill="white"/>
</svg>
