<svg width="33" height="33" viewBox="0 0 33 33" fill="none" xmlns="http://www.w3.org/2000/svg">
<path fill-rule="evenodd" clip-rule="evenodd" d="M3.80774 26.117V12.7901H5.92312V26.117C5.92312 26.3889 6.03456 26.6496 6.23291 26.8419C6.43127 27.0341 6.7003 27.1421 6.98082 27.1421H26.0193C26.2998 27.1421 26.5688 27.0341 26.7672 26.8419C26.9655 26.6496 27.077 26.3889 27.077 26.117V12.7901H29.1924V26.117C29.1924 26.9326 28.858 27.7149 28.263 28.2916C27.6679 28.8684 26.8608 29.1924 26.0193 29.1924H6.98082C6.13926 29.1924 5.33218 28.8684 4.73711 28.2916C4.14204 27.7149 3.80774 26.9326 3.80774 26.117ZM27.077 3.56372V10.7398L22.8462 6.63917V3.56372C22.8462 3.29184 22.9576 3.03109 23.156 2.83883C23.3543 2.64658 23.6234 2.53857 23.9039 2.53857H26.0193C26.2998 2.53857 26.5688 2.64658 26.7672 2.83883C26.9655 3.03109 27.077 3.29184 27.077 3.56372Z" fill="#929292"/>
<path fill-rule="evenodd" clip-rule="evenodd" d="M14.9447 1.97236C15.3573 1.58987 15.9167 1.375 16.5 1.375C17.0833 1.375 17.6427 1.58987 18.0553 1.97236L32.6774 15.532C32.884 15.7235 33 15.9833 33 16.2542C33 16.5251 32.884 16.7849 32.6774 16.9765C32.4709 17.168 32.1908 17.2756 31.8987 17.2756C31.6066 17.2756 31.3265 17.168 31.12 16.9765L16.5 3.41483L1.88003 16.9765C1.6735 17.168 1.39338 17.2756 1.1013 17.2756C0.809215 17.2756 0.529096 17.168 0.322562 16.9765C0.116029 16.7849 0 16.5251 0 16.2542C0 15.9833 0.116029 15.7235 0.322562 15.532L14.9447 1.97236Z" fill="#929292"/>
</svg>
